<svg id="prefix__Ebene_1" xmlns="http://www.w3.org/2000/svg" version="1.1" viewBox="0 0 283.8 158.5"><defs><style>.prefix__st1{fill:#1d5390}</style></defs><path class="prefix__st1" d="M185.7 77.6h5.4c1.5 0 2.7 1.2 2.7 2.7v41.5c0 1.5-1.2 2.7-2.7 2.7h-5.4c-1.5 0-2.7-1.2-2.7-2.7V80.3c0-1.5 1.2-2.7 2.7-2.7zM163.9 77.6h-32.7c-1.5 0-2.7 1.2-2.7 2.7v8.2h33.7c.7 0 1.3.5 1.3 1.2v6.1c0 .7-.6 1.2-1.3 1.2h-33.7v24.8c0 1.5 1.2 2.7 2.7 2.7h5.4c1.5 0 2.7-1.2 2.7-2.7v-13.9h24.6c5.8 0 10.4-4.7 10.4-10.5V88c0-5.8-4.7-10.5-10.4-10.5zM117.2 113.7h-31c-.7 0-1.3-.5-1.3-1.2V80.4c0-1.5-1.2-2.7-2.7-2.7h-5.4c-1.5 0-2.7 1.2-2.7 2.7v33.8c0 5.8 4.7 10.5 10.4 10.5h32.7c1.5 0 2.7-1.2 2.7-2.7v-5.4c0-1.5-1.2-2.7-2.7-2.7zM280.6 77.6h-40.5c-1.5 0-2.7 1.2-2.7 2.7v8.2h43.2c1.5 0 2.7-1.2 2.7-2.7v-5.4c0-1.5-1.2-2.7-2.7-2.7zM280.6 97.1h-43.2v24.8c0 1.5 1.2 2.7 2.7 2.7h5.4c1.5 0 2.7-1.2 2.7-2.7v-13.7h32.3c1.5 0 2.7-1.2 2.7-2.7v-5.6c0-1.5-1.2-2.7-2.7-2.7zM213.6 103.2c-1.7-2.1-2.9-3.5-2.9-3.5l15.2-17.9c.3-.5.7-1 .7-1.7 0-1.4-1-2.6-2.2-2.6h-8.7c-.3 0-.5.1-.7.3s-17.1 20-17.1 20c-.4.5-.6 1.1-.6 1.7s.2 1.1.5 1.5l18.6 22.1.8.9c.2.2.4.4.7.4h8.7c1.2 0 2.2-1.1 2.2-2.6s-.4-1.2-.7-1.7L213.6 103z"/><path fill="none" d="M74.1 77.6h209.3v47H74.1z"/><g><path class="prefix__st1" d="M26.5 79.5c0 5.9-4.8 10.7-10.7 10.7H1.5v2.7h14.3c7.4 0 13.4-6 13.4-13.4s-6-13.4-13.4-13.4H2.9V36.6h35.6v-2.7H.1v35h15.6c5.9 0 10.7 4.8 10.7 10.7z"/><path class="prefix__st1" d="M33.4 61.9c-2.3-2.3-4.9-4.1-7.9-5.3-3.1-1.3-6.3-2-9.7-2h-1.5v-6.7h24.2v-2.7H11.6v12.1h4.2c3 0 5.9.6 8.6 1.7 2.6 1.1 5 2.7 7 4.7s3.6 4.4 4.7 7c1.2 2.7 1.7 5.6 1.7 8.6s-.6 5.9-1.7 8.6c-1.1 2.6-2.7 5-4.7 7s-4.4 3.6-7 4.7c-2.7 1.2-5.6 1.7-8.6 1.7H1.5v2.7h14.3c3.4 0 6.6-.7 9.7-2 3-1.3 5.6-3 7.9-5.3 2.3-2.3 4.1-4.9 5.3-7.9 1.3-3.1 2-6.3 2-9.7s-.7-6.6-2-9.7c-1.3-3-3-5.6-5.3-7.9z"/><path class="prefix__st1" d="M38.5 42.3v-2.7H5.9v23.6h9.9c9 0 16.4 7.4 16.4 16.4S24.8 96 15.8 96H1.5v2.7h14.3c10.6 0 19.2-8.6 19.2-19.2s-8.6-19.2-19.2-19.2H8.6V42.2h29.9zM87.8 53.3c-.3-1.9-.8-3.8-1.5-5.5-1.2-2.7-2.8-5.2-4.9-7.3-2.1-2.1-4.5-3.7-7.3-4.9-2.8-1.2-5.8-1.8-8.9-1.8s-6.1.6-8.9 1.8c-2.7 1.2-5.2 2.8-7.3 4.9-2.1 2.1-3.7 4.5-4.9 7.3-1.2 2.8-1.8 5.8-1.8 8.9v24.9c0 3.1.6 6.1 1.8 8.9 1.1 2.7 2.8 5.2 4.9 7.3 2.1 2.1 4.5 3.7 7.3 4.9 2.8 1.2 5.8 1.8 8.9 1.8h.2v-2.7h-.2c-2.7 0-5.3-.5-7.8-1.6-2.4-1-4.5-2.5-6.4-4.3-1.8-1.8-3.3-4-4.3-6.4-1-2.5-1.6-5.1-1.6-7.8V56.8c0-2.7.5-5.3 1.6-7.8 1-2.4 2.5-4.5 4.3-6.4 1.8-1.8 4-3.3 6.4-4.3 2.5-1 5.1-1.6 7.8-1.6s5.3.5 7.8 1.6c2.4 1 4.5 2.5 6.4 4.3 1.8 1.8 3.3 4 4.3 6.4.6 1.4 1 2.9 1.3 4.5h2.8z"/><path class="prefix__st1" d="M50.9 81.5V56.6c0-7.9 6.5-14.4 14.4-14.4s12.5 4.7 14 11h2.8c-1.6-7.8-8.5-13.8-16.8-13.8s-17.1 7.7-17.1 17.1v24.9c0 9.4 7.7 17.1 17.1 17.1h.2v-2.7h-.2c-7.9 0-14.4-6.5-14.4-14.4z"/><path class="prefix__st1" d="M65.3 45.2c-6.3 0-11.4 5.1-11.4 11.4v24.9c0 6.3 5.1 11.4 11.4 11.4h.2v-2.7h-.2c-4.8 0-8.7-3.9-8.7-8.7V56.6c0-4.8 3.9-8.7 8.7-8.7s6.7 2.2 8 5.3h2.9c-1.4-4.7-5.8-8.1-10.9-8.1zM95.6 60.4L92 70.2h2.7l.6-1.9h3.1l.6 1.9h2.7L98 60.4h-2.5zm.3 5.9l.9-3.3.9 3.3h-1.9z"/><path class="prefix__st1" d="M78.6 64.2l-1.9-3.8h-3l3.5 5.9v3.9h2.6v-3.9l3.5-5.9h-2.8l-1.9 3.8zM118.9 65.3c-.5-.4-.9-.6-2.2-1.2q-1.3-.6-1.5-.7c-.2-.1-.3-.3-.3-.5 0-.5.4-.8 1.2-.8s1.3.4 1.3 1.3h2.4c0-.8 0-1.2-.3-1.6-.5-1-1.7-1.6-3.4-1.6s-3.8 1.2-3.8 3 .8 2.1 2.9 3q1.4.6 1.6.7c.3.2.5.4.5.7 0 .5-.5.8-1.3.8s-1.6-.5-1.7-1.6h-2.4c0 .9 0 1.2.3 1.7.6 1.2 1.9 1.8 3.8 1.8s4-1.2 4-3-.3-1.6-1-2.1zM110.7 63.6c0-1.1-.5-1.9-1.3-2.5-.7-.5-1.6-.6-3.6-.6h-3v9.8h2.6v-3.5h.9l2 3.5h3l-2.4-4c1.2-.5 1.8-1.4 1.8-2.6zm-4.5 1.1h-.7v-2.3h.8c.7 0 1 0 1.2.1.4.2.6.5.6 1 0 .9-.5 1.2-1.9 1.2zM86.9 66.1H91v-2h-4.1v-1.7h4.5v-2h-7.1v9.8h7.3v-2h-4.7v-2.1z"/></g></svg>